<?xml version="1.0" standalone="no"?>
<!DOCTYPE svg PUBLIC "-//W3C//DTD SVG 20010904//EN"
 "http://www.w3.org/TR/2001/REC-SVG-20010904/DTD/svg10.dtd">
<svg version="1.0" xmlns="http://www.w3.org/2000/svg"
 width="152.000000pt" height="152.000000pt" viewBox="0 0 152.000000 152.000000"
 preserveAspectRatio="xMidYMid meet">
<metadata>
Created by potrace 1.11, written by Peter Selinger 2001-2013
</metadata>
<g transform="translate(0.000000,152.000000) scale(0.100000,-0.100000)"
fill="#000000" stroke="none">
<path d="M0 760 l0 -760 760 0 760 0 0 760 0 760 -760 0 -760 0 0 -760z m552
123 c4 -276 9 -305 61 -362 72 -79 222 -79 294 0 52 57 57 86 61 362 l4 257
84 0 84 0 0 -269 c0 -234 -2 -277 -18 -329 -51 -163 -182 -255 -362 -255 -180
0 -311 92 -362 255 -16 52 -18 95 -18 329 l0 269 84 0 84 0 4 -257z"/>
</g>
</svg>
